<!-- icon666.com - MILLIONS OF FREE VECTOR ICONS --><svg version="1.1" id="Capa_1" xmlns="http://www.w3.org/2000/svg" xmlns:xlink="http://www.w3.org/1999/xlink" x="0px" y="0px" viewBox="0 0 512 512" style="enable-background:new 0 0 512 512;" xml:space="preserve"><g><g><g><path d="M215.855,253.24c8.298,3.647,17.954-0.115,21.601-8.404c3.639-8.28-0.124-17.954-8.404-21.592 c-53.213-23.394-72.001-78.763-63.046-121.362c9.088-43.282,42.377-69.125,89.031-69.125c29.872,0,53.213,9.815,69.365,29.18 c19.48,23.332,24.139,56.053,20.119,78.115c-9.052,49.627-42.359,89.368-104.837,125.08c-7.863,4.482-10.588,14.492-6.097,22.355 c3.017,5.289,8.546,8.253,14.235,8.253c2.751,0,5.547-0.692,8.111-2.165c44.995-25.71,106.47-69.001,120.803-147.649 c4.988-27.414,0.861-71.353-27.192-104.979C333.96,22.267,304.904,0,255.019,0c-74.548,0-111.431,49.157-121.087,95.155 C122.262,150.684,146.659,222.817,215.855,253.24z"></path><path d="M473.453,332.376c-19.933-52.006-105.911-84.984-115.646-88.579c-8.014-2.938-16.977,0.754-20.545,8.529 c-17.847,38.809-48.332,61.963-81.541,61.963h-0.009c-33.094,0-62.451-22.577-80.547-61.954 c-3.577-7.765-12.531-11.466-20.554-8.529c-9.727,3.594-95.732,36.573-115.638,88.57c-12.513,32.57-11.91,67.537-11.369,98.403 c0.089,5.733,0.195,11.297,0.195,16.64c0,9.052,7.331,16.392,16.383,16.392c9.052,0,16.383-7.339,16.383-16.392 c0-5.529-0.089-11.28-0.195-17.208c-0.488-27.867-1.029-59.452,9.203-86.094c10.437-27.263,55.494-51.953,83.014-64.084 c24.077,42.261,61.759,67.031,103.133,67.04c0.009,0,0.009,0,0.018,0c41.915-0.009,79.952-24.778,104.118-67.048 c27.503,12.141,72.569,36.839,83.023,64.093c7.881,20.545,12.149,65.948,12.717,135.117H39.976 c-9.052,0-16.383,7.339-16.383,16.383c0,9.043,7.331,16.383,16.383,16.383h432.065c9.052,0,16.383-7.339,16.365-16.4 C488.407,442.263,486.862,367.316,473.453,332.376z"></path></g></g></g></svg>